<svg width="24" height="24" xmlns="http://www.w3.org/2000/svg">
    <g fill="none" fill-rule="evenodd">
        <path d="M12 5c1.657 0 3.157.672 4.243 1.757A5.981 5.981 0 0 1 18 11v5.236L19.382 19H4.618L6 16.236V11c0-1.657.672-3.157 1.757-4.243A5.981 5.981 0 0 1 12 5z" stroke="#141F2A" stroke-width="2" fill-opacity=".2" fill="#FFF"/>
        <path d="M12 2c.414 0 .79.168 1.06.44.272.27.44.646.44 1.06V5h-3V3.5c0-.414.168-.79.44-1.06.27-.272.646-.44 1.06-.44z" stroke="#141F2A" stroke-width="2"/>
        <path d="M10 21h4a2 2 0 1 1-4 0z" fill="#141F2A"/>
        <circle stroke="#FFF" stroke-width="2" fill="#FE5858" cx="18" cy="7" r="4"/>
    </g>
</svg>
