<svg width="24" height="24" xmlns="http://www.w3.org/2000/svg">
    <g fill="none" fill-rule="evenodd">
        <path fill="#D8D8D8" d="M-201-84h381V80h-381z"/>
        <g stroke="#FFF" stroke-width="2">
            <path d="M12 5c1.657 0 3.157.672 4.243 1.757A5.981 5.981 0 0 1 18 11v5.236L19.382 19H4.618L6 16.236V11c0-1.657.672-3.157 1.757-4.243A5.981 5.981 0 0 1 12 5z"/>
            <path d="M12 2c.414 0 .79.168 1.06.44.272.27.44.646.44 1.06V5h-3V3.5c0-.414.168-.79.44-1.06.27-.272.646-.44 1.06-.44z"/>
        </g>
    </g>
</svg>
