<svg width="64" height="64" xmlns="http://www.w3.org/2000/svg">
    <g fill="#FEFEFE" fill-rule="evenodd">
        <path d="M51.69 23.845c.435 1.646 2.184 2.993 3.888 2.993h5.325A3.106 3.106 0 0 0 64 23.742V3.097A3.106 3.106 0 0 0 60.903 0H48.491c-1.703 0-2.741 1.347-2.306 2.994l5.505 20.85z" opacity=".5"/>
        <path d="M47.627 37.16c-1.703 0-3.452-1.347-3.887-2.993l-3.417-12.94c-.434-1.647-1.251-1.679-1.815-.071L25.63 57.884c-.563 1.608-1.67 1.687-2.457.176L13.7 39.906c-.788-1.51-2.827-2.745-4.53-2.745H3.097A3.106 3.106 0 0 0 0 40.257v20.645A3.107 3.107 0 0 0 3.097 64h57.806A3.107 3.107 0 0 0 64 60.902V40.257a3.106 3.106 0 0 0-3.097-3.096H47.627z"/>
        <path d="M15.428 26.838c1.704 0 3.742 1.236 4.53 2.746l1.352 2.592c.788 1.51 1.893 1.43 2.457-.177L33.963 2.922C34.526 1.315 33.593 0 31.89 0H3.097A3.105 3.105 0 0 0 0 3.097v20.645a3.106 3.106 0 0 0 3.097 3.096h12.331z" opacity=".5"/>
    </g>
</svg>
